<svg xmlns="http://www.w3.org/2000/svg" fill="none" viewBox="0 0 29 28"><path fill="#000" d="M.5 0h2.154v2.154H.5zm0 2.154h2.154v2.154H.5zm0 2.154h2.154V6.46H.5zm0 2.154h2.154v2.154H.5z"/><path fill="#000" d="M.5 8.615h2.154v2.154H.5zm0 2.154h2.154v2.154H.5zm0 2.154h2.154v2.154H.5zm0 2.154h2.154v2.154H.5z"/><path fill="#000" d="M.5 17.23h2.154v2.155H.5zm0 2.155h2.154v2.154H.5z"/><path fill="#000" d="M.5 21.538h2.154v2.154H.5zm0 2.154h2.154v2.154H.5zm0 2.154h2.154V28H.5zM24.193 0v2.154h-2.154V0z"/><path fill="#000" d="M22.04 0v2.154h-2.155V0zm-2.156 0v2.154H17.73V0zM17.73 0v2.154h-2.153V0zm-2.153 0v2.154h-2.154V0zm-2.154 0v2.154H11.27V0zM11.27 0v2.154H9.116V0zM9.116 0v2.154H6.962V0zM6.961 0v2.154H4.807V0zM4.807 0v2.154H2.654V0zm21.54 2.154v2.154h-2.155V2.154zM6.96 4.308V6.46H4.807V4.308zm0-2.154v2.154H4.808V2.154zm0 4.308v2.154H4.808V6.462zm15.08-2.154V6.46h-2.155V4.308zm0-2.154v2.154h-2.155V2.154zm0 4.308v2.154h-2.155V6.462zm-4.31-2.154V6.46h-2.153V4.308z"/><path fill="#000" d="M17.73 2.154v2.154h-2.153V2.154zm0 4.308v2.154h-2.153V6.462zm4.31 2.153v2.154h-2.155V8.615zm-2.156 0v2.154H17.73V8.615z"/><path fill="#000" d="M17.73 8.615v2.154h-2.153V8.615zm-2.153 0v2.154h-2.154V8.615zm-2.154 0v2.154H11.27V8.615zm-2.153 0v2.154H9.116V8.615zm-2.154 0v2.154H6.962V8.615zm-2.155 0v2.154H4.807V8.615zm17.232 6.462v2.154h-2.154v-2.154z"/><path fill="#000" d="M22.04 15.077v2.154h-2.155v-2.154zm-2.156 0v2.154H17.73v-2.154zm-2.154 0v2.154h-2.153v-2.154zm-2.153 0v2.154h-2.154v-2.154zm-2.154 0v2.154H11.27v-2.154zm-2.153 0v2.154H9.116v-2.154z"/><path fill="#000" d="M9.116 15.077v2.154H6.962v-2.154zm-2.155 0v2.154H4.807v-2.154zm17.232 2.154v2.154h-2.154V17.23z"/><path fill="#000" d="M6.96 17.23v2.155H4.808V17.23zm17.233 2.155v2.154h-2.154v-2.154zm-17.232 0v2.154H4.807v-2.154z"/><path fill="#000" d="M24.193 21.538v2.154h-2.154v-2.154zm-17.232 0v2.154H4.807v-2.154zm0 2.154v2.154H4.807v-2.154zm17.232 0v2.154h-2.154v-2.154zm2.153 2.154V28h-2.154v-2.154z"/><path fill="#000" d="M24.193 25.846V28h-2.154v-2.154z"/><path fill="#000" d="M22.04 25.846V28h-2.155v-2.154zm-2.156 0V28H17.73v-2.154zm-2.154 0V28h-2.153v-2.154zm-2.153 0V28h-2.154v-2.154zm-2.154 0V28H11.27v-2.154zm-2.153 0V28H9.116v-2.154zm-2.154 0V28H6.962v-2.154zm-2.155 0V28H4.807v-2.154zm-2.154 0V28H2.654v-2.154zM28.5 28h-2.154v-2.154H28.5zm0-2.154h-2.154v-2.154H28.5zm0-2.154h-2.154V21.54H28.5zm0-2.154h-2.154v-2.154H28.5z"/><path fill="#000" d="M28.5 19.385h-2.154V17.23H28.5zm0-2.154h-2.154v-2.154H28.5zm0-2.154h-2.154v-2.154H28.5zm0-2.154h-2.154V10.77H28.5zm0-2.153h-2.154V8.614H28.5zm0-2.155h-2.154V6.461H28.5z"/><path fill="#000" d="M28.5 6.462h-2.154V4.308H28.5z"/></svg>