<svg id="Слой_1" data-name="Слой 1" xmlns="http://www.w3.org/2000/svg" viewBox="0 0 28 28"><path d="M26.35,4.31V2.15H24.19V0H.5V8.61h0v8.61h0v4.31h0V28h28V19.39h0V17.23h0V8.61h0V6.46h0V4.31ZM17.73,6.46V2.15h2.16V8.61H17.73ZM7,6.46V2.15h8.62V8.61H7ZM22,19.39v2.15h0v4.31H7V21.54H7V19.39H7V17.23H22ZM26.35,6.46h0V8.61h0v8.62h0v2.15h0v6.46H24.19V21.54h0V15.08H4.81v2.15h0v2.16h0v2.15h0v4.31H2.65V21.54h0V17.23h0V8.62h0V2.15H4.81V4.31h0V6.46h0V8.61h0v2.16H22V8.62h0V2.15h2.15V4.31h2.16Z" transform="translate(-0.5 0)"/></svg>